<?xml version="1.0" encoding="UTF-8"?>
<svg id="Layer_1" data-name="Layer 1" xmlns="http://www.w3.org/2000/svg" viewBox="0 0 523.93 583.41">
  <defs>
    <style>
      .cls-1 {
        fill: #e3bc9a;
        opacity: .66;
      }

      .cls-1, .cls-2, .cls-3 {
        stroke-width: 0px;
      }

      .cls-2 {
        fill: #fff;
      }

      .cls-3 {
        fill: #964b00;
      }
    </style>
  </defs>
  <rect class="cls-2" y=".48" width="523.93" height="582.93"/>
  <g>
    <circle class="cls-1" cx="245.67" cy="79.93" r="4.22"/>
    <path class="cls-3" d="m239.59,550.14c43.71-151.15,87.57-302.78,131.62-455.11-11.62-4.33-22.88-8.53-33.99-12.67-3.37-1.26-6.74-2.51-10.09-3.76l-.39-.05-67.55-7.96c0,.1,0,.19,0,.29l-5.19-.63c0,.11-.01.22-.01.33l-12.17-1.49c0-.18.01-.37,0-.55l-90.34-10.64-5.16-.61-.54-.06-10.58-1.25L0,40.05c41.37,6.34,262.12,55.24,314.34,66.84l-5.64,12.89c-8.61,20.4-17.09,40.87-25.59,61.32-35.04,84.3-70.03,168.63-105.14,252.9-14.58,34.99-29.44,69.88-44.93,106.6-.04-.03-.08-.05-.11-.07l-10.88,27.36c5.52,4.19,11.05,8.37,16.6,12.53,2.75,2.07,7.77,3.61,10.71,2.55,26.04-9.37,51.83-12.23,77.69.37.45.22,1.19-.16,3.08-.49l293.8-119.94-284.34,87.23Zm-20.38-1.26c-3.31,10.43-4.54,10.91-15.08,6.61,22.61-77.83,45.25-155.75,67.89-233.68-2.33,2.18-3.72,4.64-4.73,7.24-28.29,73.16-56.55,146.32-84.8,219.49-4.99,12.93-7.11,14.03-23.81,11.16,62.98-153.66,125.83-307.02,188.67-460.34,7.75,1.49,14.72,1.43,11.25,12.04-11.13,33.98-21.66,68.15-32.55,102.2-23.12,72.29-46.38,144.54-69.45,216.84-12.59,39.44-24.88,78.97-37.39,118.44Z"/>
    <g>
      <g>
        <path class="cls-3" d="m259.19,70.59c0,.1,0,.19,0,.29l-5.19-.63c0,.11-.01.22-.01.33l-12.17-1.49c0-.18.01-.37,0-.55.27-28.24-16.63-52.28-40.36-55.89-.39-.06-.77-.11-1.16-.16-24.46-3.01-47.44,16.63-53.98,44.8l-.54-.06-6.47-.78C146.37,23.2,173.03-.59,202.43.48c30.58,4.15,52.45,34.37,51.56,69.5l5.2.61Z"/>
        <path class="cls-1" d="m200.29,12.49c.39.05.77.1,1.16.16-22.98-.55-43.87,18.55-49.98,45.25h0s-5.16-.61-5.16-.61c6.54-28.17,29.52-47.81,53.98-44.8Z"/>
        <path class="cls-1" d="m259.19,70.59l-5.2-.61c.89-35.13-20.98-65.35-51.56-69.5,1.45.05,2.91.17,4.38.34,31.01,3.73,53.32,34.24,52.38,69.77Z"/>
        <path class="cls-3" d="m202.43.48c-29.4-1.07-56.06,22.72-63.13,55.97l6.47.78.54.06s-.01.04-.01.06l-11.11-1.37-1.05-.13C141.64,20.99,170.69-3.43,201.78.39c.22.03.44.06.65.09Z"/>
      </g>
      <g>
        <circle class="cls-1" cx="139.3" cy="62.03" r="3.13"/>
        <circle class="cls-1" cx="247.18" cy="79.81" r="3.13"/>
      </g>
    </g>
  </g>
</svg>