<?xml version="1.0" encoding="UTF-8"?>
<svg id="Layer_1" data-name="Layer 1" xmlns="http://www.w3.org/2000/svg" viewBox="0 0 1544.22 622.85">
  <defs>
    <style>
      .cls-1, .cls-2, .cls-3, .cls-4 {
        stroke-width: 0px;
      }

      .cls-1, .cls-3 {
        fill: #e3bc9a;
      }

      .cls-5 {
        opacity: .33;
      }

      .cls-2, .cls-3 {
        opacity: .66;
      }

      .cls-4 {
        fill: #fff;
      }
    </style>
  </defs>
  <g class="cls-5">
    <path class="cls-1" d="m431.72,472.41c9.83,1.96,20.3.66,31.45-3.93,11.13-4.57,21.62-11.79,31.45-21.62,9.83-9.83,18.67-21.62,26.53-35.38,7.86-13.76,14.08-28.16,18.67-43.24,1.31-5.24,3.76-6.71,7.37-4.42,3.59,2.3,4.74,5.41,3.44,9.34-3.93,13.76-9.5,27.52-16.71,41.27-7.22,13.76-16.06,26.04-26.53,36.85-10.49,10.81-22.6,19.33-36.36,25.55-13.76,6.24-29.48,8.69-47.17,7.37-13.11-.65-23.43-3.93-30.96-9.83-7.54-5.9-13.1-12.77-16.71-20.63-3.59-7.86-5.73-16.05-6.39-24.57-.65-8.51-.98-16.05-.98-22.6.66-17.03,4.42-32.58,11.3-46.68,6.88-14.08,15.23-25.87,25.06-35.38,9.83-9.49,20.96-16.21,33.41-20.14,12.44-3.93,24.57-3.93,36.36,0,13.76,3.93,22.26,11.79,25.55,23.58,3.27,11.79,2.61,23.93-1.96,36.36-4.59,12.45-12.62,23.59-24.08,33.41-11.47,9.83-24.74,14.42-39.8,13.76-5.25,0-10.17-.32-14.74-.98-4.59-.65-10.16-3.59-16.7-8.85-3.93,17.69-3.44,33.09,1.47,46.19,4.91,13.11,13.91,21.3,27.03,24.57Zm-24.57-82.55l-1.97.98c17.69,9.18,32.92,11.15,45.7,5.9,12.78-5.24,22.26-13.1,28.5-23.59,6.22-10.47,8.84-20.96,7.86-31.45-.98-10.47-6.07-16.37-15.23-17.69-7.86-1.31-15.57.17-23.09,4.42-7.54,4.27-14.25,9.83-20.15,16.71-5.9,6.88-10.81,14.42-14.74,22.6-3.93,8.2-6.24,15.57-6.88,22.11Z"/>
    <path class="cls-1" d="m747.66,470.45c3.93,1.96,8.18.83,12.77-3.44,4.58-4.25,9.34-10.47,14.25-18.67,4.91-8.18,9.98-17.84,15.23-28.99,5.23-11.13,9.83-22.92,13.76-35.38,3.93-10.47,7.37-13.91,10.32-10.32,2.95,3.61,3.44,8.36,1.47,14.25-4.59,13.11-9.5,25.89-14.74,38.33-5.25,12.45-10.98,23.26-17.2,32.43-6.24,9.18-13.27,16.22-21.13,21.13-7.86,4.91-16.71,6.39-26.53,4.42-12.45-3.27-20.31-9.49-23.59-18.67-3.29-9.17-4.59-19.98-3.93-32.43.64-17.69,2.29-34.05,4.91-49.13,2.61-15.06,4.91-28.5,6.88-40.29,2.61-13.76,1.8-20.47-2.46-20.14-4.27.33-8.69,4.1-13.27,11.3-9.83,13.76-19.16,28.99-28.01,45.7-8.85,16.71-15.57,30.63-20.14,41.76-3.29,7.22-4.91,13.44-4.91,18.67s-.66,12.45-1.96,21.62c-.66,3.93-2.79,6.56-6.39,7.86-3.61,1.32-7.22,1.15-10.81-.49-3.61-1.63-6.88-4.91-9.83-9.83-2.95-4.91-4.42-11.95-4.42-21.13,0-19,.65-35.38,1.97-49.13,1.31-13.76,3.27-29.14,5.9-46.19,2.61-13.76,2.61-19.98,0-18.67-2.63,1.32-6.56,4.92-11.79,10.81-13.11,16.38-24.08,33.75-32.92,52.08-8.85,18.35-15.89,34.07-21.13,47.17-1.32,5.25-2.3,10.48-2.95,15.72-.66,5.25-1.32,10.49-1.96,15.72,0,1.96-.17,3.78-.49,5.41-.34,1.64-.49,3.12-.49,4.42-.66,3.93-2.46,6.56-5.4,7.86-2.95,1.32-6.23,1.15-9.83-.49-3.59-1.63-6.71-4.91-9.34-9.83-2.61-4.91-4.25-11.95-4.91-21.13-.65-10.47-.82-22.11-.49-34.89.34-12.77,1.15-25.55,2.46-38.33,1.32-12.77,2.79-24.72,4.42-35.87,1.64-11.13,3.44-19.98,5.4-26.54,2.63-7.86,6.54-12.6,11.79-14.25,5.24-1.63,10.47-1.63,15.72,0,5.24,1.64,9.66,4.1,13.27,7.37,3.59,3.29,5.07,6.24,4.42,8.85-7.22,15.08-12.62,30.8-16.22,47.17-3.61,16.38-6.06,28.17-7.37,35.38,7.86-13.1,15.06-25.7,21.62-37.84,6.54-12.11,13.76-23.74,21.62-34.89,9.83-13.1,18.67-21.28,26.53-24.57,7.86-3.27,15.39-4.25,22.6-2.95,11.13,1.96,17.84,6.72,20.14,14.25,2.29,7.54,1.47,18.52-2.46,32.92-1.97,5.9-3.78,11.79-5.4,17.69-1.64,5.89-3.12,11.79-4.42,17.69,5.24-9.17,10.64-18.33,16.21-27.52,5.56-9.17,11.62-18.33,18.18-27.52,9.83-13.1,19.16-21.45,28.01-25.06,8.85-3.59,16.86-4.42,24.08-2.46,18.99,4.59,24.89,20.31,17.69,47.17-3.29,11.79-6.56,24.42-9.83,37.84-3.29,13.43-5.9,26.04-7.86,37.83-1.97,11.79-2.95,21.96-2.95,30.46s1.96,13.76,5.9,15.73Z"/>
    <path class="cls-1" d="m860.18,472.41c9.83,1.96,20.3.66,31.45-3.93,11.13-4.57,21.62-11.79,31.45-21.62,9.83-9.83,18.67-21.62,26.53-35.38,7.86-13.76,14.08-28.16,18.67-43.24,1.31-5.24,3.76-6.71,7.37-4.42,3.59,2.3,4.74,5.41,3.44,9.34-3.93,13.76-9.5,27.52-16.71,41.27-7.21,13.76-16.06,26.04-26.53,36.85-10.49,10.81-22.6,19.33-36.36,25.55-13.76,6.24-29.48,8.69-47.17,7.37-13.11-.65-23.43-3.93-30.95-9.83-7.54-5.9-13.1-12.77-16.71-20.63-3.59-7.86-5.73-16.05-6.39-24.57-.65-8.51-.98-16.05-.98-22.6.66-17.03,4.42-32.58,11.3-46.68,6.88-14.08,15.23-25.87,25.06-35.38,9.83-9.49,20.96-16.21,33.41-20.14,12.44-3.93,24.57-3.93,36.36,0,13.76,3.93,22.26,11.79,25.55,23.58,3.27,11.79,2.61,23.93-1.96,36.36-4.59,12.45-12.62,23.59-24.08,33.41-11.47,9.83-24.74,14.42-39.8,13.76-5.25,0-10.16-.32-14.74-.98-4.59-.65-10.16-3.59-16.7-8.85-3.93,17.69-3.44,33.09,1.47,46.19,4.92,13.11,13.91,21.3,27.03,24.57Zm-24.57-82.55l-1.96.98c17.69,9.18,32.92,11.15,45.7,5.9,12.77-5.24,22.26-13.1,28.5-23.59,6.22-10.47,8.84-20.96,7.86-31.45-.98-10.47-6.07-16.37-15.23-17.69-7.86-1.31-15.57.17-23.09,4.42-7.54,4.27-14.25,9.83-20.15,16.71-5.9,6.88-10.81,14.42-14.74,22.6-3.93,8.2-6.24,15.57-6.88,22.11Z"/>
    <path class="cls-1" d="m1086.69,470.45c3.93,1.96,8.18.83,12.77-3.44,4.58-4.25,9.34-10.47,14.25-18.67,4.91-8.18,9.98-17.84,15.23-28.99,5.23-11.13,9.83-22.92,13.76-35.38,3.93-10.47,7.37-13.91,10.32-10.32,2.95,3.61,3.44,8.36,1.47,14.25-4.59,13.11-9.34,25.89-14.25,38.33-4.91,12.45-10.48,23.26-16.71,32.43-6.23,9.18-13.11,16.22-20.63,21.13-7.54,4.91-15.9,6.39-25.06,4.42-13.11-3.27-21.47-9.49-25.06-18.67-3.61-9.17-5.09-19.98-4.42-32.43,0-17.69,1.31-34.05,3.93-49.13,2.61-15.06,4.58-28.5,5.9-40.29,2.61-13.76,2.12-19.98-1.47-18.67-3.61,1.32-8.03,4.92-13.26,10.81-13.12,16.38-24.08,33.75-32.92,52.08-8.85,18.35-15.89,34.07-21.13,47.17-1.32,5.25-2.3,10.48-2.95,15.72-.66,5.25-1.32,10.49-1.96,15.72,0,1.96-.17,3.78-.49,5.41-.33,1.64-.49,3.12-.49,4.42-.66,3.93-2.62,6.56-5.9,7.86-3.29,1.32-6.72,1.15-10.32-.49-3.59-1.63-6.88-4.91-9.83-9.83-2.95-4.91-4.74-11.95-5.41-21.13-.64-10.47-.64-22.11,0-34.89.66-12.77,1.64-25.55,2.95-38.33,1.32-12.77,2.95-24.72,4.92-35.87,1.96-11.13,3.93-19.98,5.9-26.54,2.62-7.86,6.54-12.6,11.79-14.25,5.24-1.63,10.47-1.63,15.73,0,5.23,1.64,9.66,4.1,13.26,7.37,3.59,3.29,5.07,6.24,4.42,8.85-7.21,15.08-12.62,30.8-16.21,47.17-3.61,16.38-6.07,28.17-7.37,35.38,7.86-13.1,15.06-25.7,21.62-37.84,6.54-12.11,13.76-23.74,21.62-34.89,9.83-13.1,19.32-21.28,28.5-24.57,9.17-3.27,17.35-4.25,24.57-2.95,11.13,1.96,17.84,6.72,20.14,14.25,2.29,7.54,1.47,18.52-2.45,32.92-3.29,11.79-6.56,24.42-9.83,37.84-3.29,13.43-5.9,26.04-7.86,37.83-1.96,11.79-2.95,21.96-2.95,30.46s1.96,13.76,5.9,15.73Z"/>
    <path class="cls-1" d="m1285.68,471.43c8.51,1.32,16.71-5.56,24.57-20.63,7.86-15.06,15.72-36.36,23.58-63.88.65-3.27,1.63-5.4,2.95-6.39,1.31-.98,2.61-1.47,3.93-1.47,4.57,0,6.22,2.63,4.91,7.86-2.63,11.15-5.9,22.6-9.83,34.39-3.93,11.79-8.84,22.6-14.74,32.43-5.9,9.83-12.62,17.69-20.15,23.58-7.54,5.9-16.21,8.2-26.04,6.88-7.21-1.31-12.94-4.08-17.2-8.36-4.27-4.25-7.54-8.85-9.83-13.76-2.31-4.91-3.93-9.98-4.92-15.23-.98-5.23-1.81-9.83-2.45-13.76-13.76,20.98-25.89,34.73-36.36,41.27-10.49,6.56-19.65,9.83-27.52,9.83-11.79,0-21.96-5.73-30.46-17.2-8.51-11.45-11.79-28.99-9.83-52.57.66-11.79,2.8-24.08,6.39-36.85,3.61-12.77,8.67-24.57,15.23-35.38,6.54-10.81,15.23-19.98,26.04-27.52,10.81-7.53,24.07-11.95,39.8-13.27,17.69-.65,32.43,4.27,44.22,14.74,11.79,10.48,19.32,19.99,22.6,28.5,1.31,3.29,2.78,6.39,4.42,9.34,1.63,2.94,1.47,8.35-.49,16.21-1.96,7.22-4.27,16.39-6.88,27.52-2.63,11.15-4.76,22.11-6.39,32.92-1.64,10.81-2.31,20.14-1.97,28.01.33,7.86,2.46,12.13,6.39,12.77Zm-35.38-114.98c1.31-2.61,3.1-5.23,5.41-7.86,2.29-2.61,6.39-3.93,12.28-3.93h6.88c-1.32-5.23-5.25-9.98-11.79-14.25-6.56-4.25-15.73-6.39-27.52-6.39-17.04,0-30.8,7.71-41.28,23.09-10.48,15.4-18.02,32.28-22.6,50.61-4.59,18.35-6.07,35.22-4.42,50.61,1.63,15.4,6.71,23.09,15.23,23.09,7.86,0,15.55-4.74,23.09-14.25,7.52-9.49,14.89-22.43,22.11-38.81,3.93-9.17,7.53-18.51,10.81-28.01,3.27-9.49,6.54-19.81,9.83-30.95l1.96-2.95Z"/>
    <path class="cls-1" d="m1477.79,324.02c-1.96,7.86-4.91,21.62-8.84,41.27-3.93,19.65-6.88,38.66-8.85,57-.66,2.63-1.15,6.39-1.47,11.3-.34,4.91-.34,9.83,0,14.74.32,4.91,1.31,9.34,2.95,13.27,1.63,3.93,4.42,6.24,8.35,6.88,4.58,1.32,9.98-1.63,16.22-8.84,6.22-7.2,12.11-16.22,17.69-27.03,5.55-10.81,10.81-22.43,15.72-34.89,4.91-12.44,9-23.58,12.28-33.41,1.96-5.23,4.91-7.52,8.85-6.88,3.93.66,4.57,4.27,1.96,10.81-3.93,10.49-8.35,22.94-13.27,37.34-4.91,14.42-10.81,28.01-17.69,40.78-6.88,12.77-14.91,22.94-24.08,30.46-9.18,7.54-19.65,9.34-31.45,5.4-1.96,19-4.76,37.18-8.35,54.54-3.61,17.35-9.01,32.58-16.22,45.7-7.21,13.1-16.22,23.25-27.03,30.46-10.81,7.2-24.41,10.48-40.78,9.83-11.79-.66-22.11-3.93-30.96-9.83-8.85-5.9-15.38-13.76-19.65-23.58-4.25-9.83-6.39-20.81-6.39-32.92s2.63-25.06,7.86-38.81c1.32-5.9,6.88-14.42,16.71-25.55,5.25-9.83,10.32-12.6,15.23-8.36,4.91,4.27,5.41,10.32,1.47,18.18-3.93,3.27-8.01,5.73-12.28,7.37-4.25,1.63-7.37,5.07-9.34,10.32-6.54,13.76-9.83,26.36-9.83,37.84s2.13,21.28,6.39,29.48c4.27,8.19,9.67,14.57,16.21,19.16,6.54,4.57,13.42,6.54,20.64,5.9,15.72-.66,27.84-7.71,36.36-21.13,8.51-13.44,14.74-29.65,18.67-48.64,3.93-19.01,6.71-39.31,8.36-60.93,1.63-21.62,3.44-41.27,5.4-58.96-7.21,20.98-15.4,36.21-24.57,45.7-9.18,9.5-20.31,14.25-33.41,14.25s-22.77-5.06-30.95-15.23c-8.19-10.15-12.28-24.72-12.28-43.73-.65-20.96,0-40.29,1.96-57.98,1.96-17.69,4.91-35.04,8.85-52.08,1.32-5.9,4.59-9.66,9.83-11.3,5.24-1.63,10.32-1.63,15.23,0,4.91,1.64,8.85,4.76,11.79,9.34,2.95,4.59,3.1,10.49.49,17.69-2.62,4.59-5.57,14.59-8.85,29.97-3.28,15.4-5.74,31.61-7.37,48.64-1.64,17.04-1.64,32.27,0,45.69,1.63,13.44,6.39,20.15,14.25,20.15,9.17,0,16.71-4.92,22.6-14.74s12.11-23.58,18.67-41.27c5.9-17.03,9.49-33.9,10.81-50.61,1.31-16.71,3.59-34.55,6.88-53.56.64-5.24,3.59-8.68,8.85-10.32,5.23-1.63,10.81-1.8,16.71-.49,5.89,1.32,11.13,3.78,15.72,7.37,4.57,3.61,5.9,8.36,3.93,14.25Z"/>
  </g>
  <g>
    <path class="cls-4" d="m431.72,462.66c9.83,1.96,20.3.66,31.45-3.93,11.13-4.57,21.62-11.79,31.45-21.62,9.83-9.83,18.67-21.62,26.53-35.38,7.86-13.76,14.08-28.16,18.67-43.24,1.31-5.24,3.76-6.71,7.37-4.42,3.59,2.3,4.74,5.41,3.44,9.34-3.93,13.76-9.5,27.52-16.71,41.27-7.22,13.76-16.06,26.04-26.53,36.85-10.49,10.81-22.6,19.33-36.36,25.55-13.76,6.24-29.48,8.69-47.17,7.37-13.11-.65-23.43-3.93-30.96-9.83-7.54-5.9-13.1-12.77-16.71-20.63-3.59-7.86-5.73-16.05-6.39-24.57-.65-8.51-.98-16.05-.98-22.6.66-17.03,4.42-32.58,11.3-46.68,6.88-14.08,15.23-25.87,25.06-35.38,9.83-9.49,20.96-16.21,33.41-20.14,12.44-3.93,24.57-3.93,36.36,0,13.76,3.93,22.26,11.79,25.55,23.58,3.27,11.79,2.61,23.93-1.96,36.36-4.59,12.45-12.62,23.59-24.08,33.41-11.47,9.83-24.74,14.42-39.8,13.76-5.25,0-10.17-.32-14.74-.98-4.59-.65-10.16-3.59-16.7-8.85-3.93,17.69-3.44,33.09,1.47,46.19,4.91,13.11,13.91,21.3,27.03,24.57Zm-24.57-82.55l-1.97.98c17.69,9.18,32.92,11.15,45.7,5.9,12.78-5.24,22.26-13.1,28.5-23.59,6.22-10.47,8.84-20.96,7.86-31.45-.98-10.47-6.07-16.37-15.23-17.69-7.86-1.31-15.57.17-23.09,4.42-7.54,4.27-14.25,9.83-20.15,16.71-5.9,6.88-10.81,14.42-14.74,22.6-3.93,8.2-6.24,15.57-6.88,22.11Z"/>
    <path class="cls-4" d="m747.66,460.7c3.93,1.96,8.18.83,12.77-3.44,4.58-4.25,9.34-10.47,14.25-18.67,4.91-8.18,9.98-17.84,15.23-28.99,5.23-11.13,9.83-22.92,13.76-35.38,3.93-10.47,7.37-13.91,10.32-10.32,2.95,3.61,3.44,8.36,1.47,14.25-4.59,13.11-9.5,25.89-14.74,38.33-5.25,12.45-10.98,23.26-17.2,32.43-6.24,9.18-13.27,16.22-21.13,21.13-7.86,4.91-16.71,6.39-26.53,4.42-12.45-3.27-20.31-9.49-23.59-18.67-3.29-9.17-4.59-19.98-3.93-32.43.64-17.69,2.29-34.05,4.91-49.13,2.61-15.06,4.91-28.5,6.88-40.29,2.61-13.76,1.8-20.47-2.46-20.14-4.27.33-8.69,4.1-13.27,11.3-9.83,13.76-19.16,28.99-28.01,45.7-8.85,16.71-15.57,30.63-20.14,41.76-3.29,7.22-4.91,13.44-4.91,18.67s-.66,12.45-1.96,21.62c-.66,3.93-2.79,6.56-6.39,7.86-3.61,1.32-7.22,1.15-10.81-.49-3.61-1.63-6.88-4.91-9.83-9.83-2.95-4.91-4.42-11.95-4.42-21.13,0-19,.65-35.38,1.97-49.13,1.31-13.76,3.27-29.14,5.9-46.19,2.61-13.76,2.61-19.98,0-18.67-2.63,1.32-6.56,4.92-11.79,10.81-13.11,16.38-24.08,33.75-32.92,52.08-8.85,18.35-15.89,34.07-21.13,47.17-1.32,5.25-2.3,10.48-2.95,15.72-.66,5.25-1.32,10.49-1.96,15.72,0,1.96-.17,3.78-.49,5.41-.34,1.64-.49,3.12-.49,4.42-.66,3.93-2.46,6.56-5.4,7.86-2.95,1.32-6.23,1.15-9.83-.49-3.59-1.63-6.71-4.91-9.34-9.83-2.61-4.91-4.25-11.95-4.91-21.13-.65-10.47-.82-22.11-.49-34.89.34-12.77,1.15-25.55,2.46-38.33,1.32-12.77,2.79-24.72,4.42-35.87,1.64-11.13,3.44-19.98,5.4-26.54,2.63-7.86,6.54-12.6,11.79-14.25,5.24-1.63,10.47-1.63,15.72,0,5.24,1.64,9.66,4.1,13.27,7.37,3.59,3.29,5.07,6.24,4.42,8.85-7.22,15.08-12.62,30.8-16.22,47.17-3.61,16.38-6.06,28.17-7.37,35.38,7.86-13.1,15.06-25.7,21.62-37.84,6.54-12.11,13.76-23.74,21.62-34.89,9.83-13.1,18.67-21.28,26.53-24.57,7.86-3.27,15.39-4.25,22.6-2.95,11.13,1.96,17.84,6.72,20.14,14.25,2.29,7.54,1.47,18.52-2.46,32.92-1.97,5.9-3.78,11.79-5.4,17.69-1.64,5.89-3.12,11.79-4.42,17.69,5.24-9.17,10.64-18.33,16.21-27.52,5.56-9.17,11.62-18.33,18.18-27.52,9.83-13.1,19.16-21.45,28.01-25.06,8.85-3.59,16.86-4.42,24.08-2.46,18.99,4.59,24.89,20.31,17.69,47.17-3.29,11.79-6.56,24.42-9.83,37.84-3.29,13.43-5.9,26.04-7.86,37.83-1.97,11.79-2.95,21.96-2.95,30.46s1.96,13.76,5.9,15.73Z"/>
    <path class="cls-4" d="m860.18,462.66c9.83,1.96,20.3.66,31.45-3.93,11.13-4.57,21.62-11.79,31.45-21.62,9.83-9.83,18.67-21.62,26.53-35.38,7.86-13.76,14.08-28.16,18.67-43.24,1.31-5.24,3.76-6.71,7.37-4.42,3.59,2.3,4.74,5.41,3.44,9.34-3.93,13.76-9.5,27.52-16.71,41.27-7.21,13.76-16.06,26.04-26.53,36.85-10.49,10.81-22.6,19.33-36.36,25.55-13.76,6.24-29.48,8.69-47.17,7.37-13.11-.65-23.43-3.93-30.95-9.83-7.54-5.9-13.1-12.77-16.71-20.63-3.59-7.86-5.73-16.05-6.39-24.57-.65-8.51-.98-16.05-.98-22.6.66-17.03,4.42-32.58,11.3-46.68,6.88-14.08,15.23-25.87,25.06-35.38,9.83-9.49,20.96-16.21,33.41-20.14,12.44-3.93,24.57-3.93,36.36,0,13.76,3.93,22.26,11.79,25.55,23.58,3.27,11.79,2.61,23.93-1.96,36.36-4.59,12.45-12.62,23.59-24.08,33.41-11.47,9.83-24.74,14.42-39.8,13.76-5.25,0-10.16-.32-14.74-.98-4.59-.65-10.16-3.59-16.7-8.85-3.93,17.69-3.44,33.09,1.47,46.19,4.92,13.11,13.91,21.3,27.03,24.57Zm-24.57-82.55l-1.96.98c17.69,9.18,32.92,11.15,45.7,5.9,12.77-5.24,22.26-13.1,28.5-23.59,6.22-10.47,8.84-20.96,7.86-31.45-.98-10.47-6.07-16.37-15.23-17.69-7.86-1.31-15.57.17-23.09,4.42-7.54,4.27-14.25,9.83-20.15,16.71-5.9,6.88-10.81,14.42-14.74,22.6-3.93,8.2-6.24,15.57-6.88,22.11Z"/>
    <path class="cls-4" d="m1086.69,460.7c3.93,1.96,8.18.83,12.77-3.44,4.58-4.25,9.34-10.47,14.25-18.67,4.91-8.18,9.98-17.84,15.23-28.99,5.23-11.13,9.83-22.92,13.76-35.38,3.93-10.47,7.37-13.91,10.32-10.32,2.95,3.61,3.44,8.36,1.47,14.25-4.59,13.11-9.34,25.89-14.25,38.33-4.91,12.45-10.48,23.26-16.71,32.43-6.23,9.18-13.11,16.22-20.63,21.13-7.54,4.91-15.9,6.39-25.06,4.42-13.11-3.27-21.47-9.49-25.06-18.67-3.61-9.17-5.09-19.98-4.42-32.43,0-17.69,1.31-34.05,3.93-49.13,2.61-15.06,4.58-28.5,5.9-40.29,2.61-13.76,2.12-19.98-1.47-18.67-3.61,1.32-8.03,4.92-13.26,10.81-13.12,16.38-24.08,33.75-32.92,52.08-8.85,18.35-15.89,34.07-21.13,47.17-1.32,5.25-2.3,10.48-2.95,15.72-.66,5.25-1.32,10.49-1.96,15.72,0,1.96-.17,3.78-.49,5.41-.33,1.64-.49,3.12-.49,4.42-.66,3.93-2.62,6.56-5.9,7.86-3.29,1.32-6.72,1.15-10.32-.49-3.59-1.63-6.88-4.91-9.83-9.83-2.95-4.91-4.74-11.95-5.41-21.13-.64-10.47-.64-22.11,0-34.89.66-12.77,1.64-25.55,2.95-38.33,1.32-12.77,2.95-24.72,4.92-35.87,1.96-11.13,3.93-19.98,5.9-26.54,2.62-7.86,6.54-12.6,11.79-14.25,5.24-1.63,10.47-1.63,15.73,0,5.23,1.64,9.66,4.1,13.26,7.37,3.59,3.29,5.07,6.24,4.42,8.85-7.21,15.08-12.62,30.8-16.21,47.17-3.61,16.38-6.07,28.17-7.37,35.38,7.86-13.1,15.06-25.7,21.62-37.84,6.54-12.11,13.76-23.74,21.62-34.89,9.83-13.1,19.32-21.28,28.5-24.57,9.17-3.27,17.35-4.25,24.57-2.95,11.13,1.96,17.84,6.72,20.14,14.25,2.29,7.54,1.47,18.52-2.45,32.92-3.29,11.79-6.56,24.42-9.83,37.84-3.29,13.43-5.9,26.04-7.86,37.83-1.96,11.79-2.95,21.96-2.95,30.46s1.96,13.76,5.9,15.73Z"/>
    <path class="cls-4" d="m1285.68,461.68c8.51,1.32,16.71-5.56,24.57-20.63,7.86-15.06,15.72-36.36,23.58-63.88.65-3.27,1.63-5.4,2.95-6.39,1.31-.98,2.61-1.47,3.93-1.47,4.57,0,6.22,2.63,4.91,7.86-2.63,11.15-5.9,22.6-9.83,34.39-3.93,11.79-8.84,22.6-14.74,32.43-5.9,9.83-12.62,17.69-20.15,23.58-7.54,5.9-16.21,8.2-26.04,6.88-7.21-1.31-12.94-4.08-17.2-8.36-4.27-4.25-7.54-8.85-9.83-13.76-2.31-4.91-3.93-9.98-4.92-15.23-.98-5.23-1.81-9.83-2.45-13.76-13.76,20.98-25.89,34.73-36.36,41.27-10.49,6.56-19.65,9.83-27.52,9.83-11.79,0-21.96-5.73-30.46-17.2-8.51-11.45-11.79-28.99-9.83-52.57.66-11.79,2.8-24.08,6.39-36.85,3.61-12.77,8.67-24.57,15.23-35.38,6.54-10.81,15.23-19.98,26.04-27.52,10.81-7.53,24.07-11.95,39.8-13.27,17.69-.65,32.43,4.27,44.22,14.74,11.79,10.48,19.32,19.99,22.6,28.5,1.31,3.29,2.78,6.39,4.42,9.34,1.63,2.94,1.47,8.35-.49,16.21-1.96,7.22-4.27,16.39-6.88,27.52-2.63,11.15-4.76,22.11-6.39,32.92-1.64,10.81-2.31,20.14-1.97,28.01.33,7.86,2.46,12.13,6.39,12.77Zm-35.38-114.98c1.31-2.61,3.1-5.23,5.41-7.86,2.29-2.61,6.39-3.93,12.28-3.93h6.88c-1.32-5.23-5.25-9.98-11.79-14.25-6.56-4.25-15.73-6.39-27.52-6.39-17.04,0-30.8,7.71-41.28,23.09-10.48,15.4-18.02,32.28-22.6,50.61-4.59,18.35-6.07,35.22-4.42,50.61,1.63,15.4,6.71,23.09,15.23,23.09,7.86,0,15.55-4.74,23.09-14.25,7.52-9.49,14.89-22.43,22.11-38.81,3.93-9.17,7.53-18.51,10.81-28.01,3.27-9.49,6.54-19.81,9.83-30.95l1.96-2.95Z"/>
    <path class="cls-4" d="m1477.79,314.27c-1.96,7.86-4.91,21.62-8.84,41.27-3.93,19.65-6.88,38.66-8.85,57-.66,2.63-1.15,6.39-1.47,11.3-.34,4.91-.34,9.83,0,14.74.32,4.91,1.31,9.34,2.95,13.27,1.63,3.93,4.42,6.24,8.35,6.88,4.58,1.32,9.98-1.63,16.22-8.84,6.22-7.2,12.11-16.22,17.69-27.03,5.55-10.81,10.81-22.43,15.72-34.89,4.91-12.44,9-23.58,12.28-33.41,1.96-5.23,4.91-7.52,8.85-6.88,3.93.66,4.57,4.27,1.96,10.81-3.93,10.49-8.35,22.94-13.27,37.34-4.91,14.42-10.81,28.01-17.69,40.78-6.88,12.77-14.91,22.94-24.08,30.46-9.18,7.54-19.65,9.34-31.45,5.4-1.96,19-4.76,37.18-8.35,54.54-3.61,17.35-9.01,32.58-16.22,45.7-7.21,13.1-16.22,23.25-27.03,30.46-10.81,7.2-24.41,10.48-40.78,9.83-11.79-.66-22.11-3.93-30.96-9.83-8.85-5.9-15.38-13.76-19.65-23.58-4.25-9.83-6.39-20.81-6.39-32.92s2.63-25.06,7.86-38.81c1.32-5.9,6.88-14.42,16.71-25.55,5.25-9.83,10.32-12.6,15.23-8.36,4.91,4.27,5.41,10.32,1.47,18.18-3.93,3.27-8.01,5.73-12.28,7.37-4.25,1.63-7.37,5.07-9.34,10.32-6.54,13.76-9.83,26.36-9.83,37.84s2.13,21.28,6.39,29.48c4.27,8.19,9.67,14.57,16.21,19.16,6.54,4.57,13.42,6.54,20.64,5.9,15.72-.66,27.84-7.71,36.36-21.13,8.51-13.44,14.74-29.65,18.67-48.64,3.93-19.01,6.71-39.31,8.36-60.93,1.63-21.62,3.44-41.27,5.4-58.96-7.21,20.98-15.4,36.21-24.57,45.7-9.18,9.5-20.31,14.25-33.41,14.25s-22.77-5.06-30.95-15.23c-8.19-10.15-12.28-24.72-12.28-43.73-.65-20.96,0-40.29,1.96-57.98,1.96-17.69,4.91-35.04,8.85-52.08,1.32-5.9,4.59-9.66,9.83-11.3,5.24-1.63,10.32-1.63,15.23,0,4.91,1.64,8.85,4.76,11.79,9.34,2.95,4.59,3.1,10.49.49,17.69-2.62,4.59-5.57,14.59-8.85,29.97-3.28,15.4-5.74,31.61-7.37,48.64-1.64,17.04-1.64,32.27,0,45.69,1.63,13.44,6.39,20.15,14.25,20.15,9.17,0,16.71-4.92,22.6-14.74,5.9-9.83,12.11-23.58,18.67-41.27,5.9-17.03,9.49-33.9,10.81-50.61,1.31-16.71,3.59-34.55,6.88-53.56.64-5.24,3.59-8.68,8.85-10.32,5.23-1.63,10.81-1.8,16.71-.49,5.89,1.32,11.13,3.78,15.72,7.37,4.57,3.61,5.9,8.36,3.93,14.25Z"/>
  </g>
  <circle class="cls-3" cx="245.67" cy="79.92" r="4.22"/>
  <path class="cls-4" d="m239.59,550.14c43.71-151.15,87.57-302.78,131.62-455.11-11.62-4.33-22.88-8.53-33.99-12.67-3.37-1.26-6.74-2.51-10.09-3.76l-.39-.05-67.55-7.96c0,.1,0,.19,0,.29l-5.19-.63c0,.11-.01.22-.01.33l-12.17-1.49c0-.18.01-.37,0-.55l-90.34-10.64-5.16-.61-.54-.06-10.58-1.25L0,40.05c41.37,6.34,262.12,55.24,314.34,66.84l-5.64,12.89c-8.61,20.4-17.09,40.87-25.59,61.32-35.04,84.3-70.03,168.63-105.14,252.9-14.58,34.99-29.44,69.88-44.93,106.6-.04-.03-.08-.05-.11-.07l-10.88,27.36c5.52,4.19,11.05,8.37,16.6,12.53,2.75,2.07,7.77,3.61,10.71,2.55,26.04-9.37,51.83-12.23,77.69.37.45.22,1.19-.16,3.08-.49l293.8-119.94-284.34,87.23Zm-20.38-1.26c-3.31,10.43-4.54,10.91-15.08,6.61,22.61-77.83,45.25-155.75,67.89-233.68-2.33,2.18-3.72,4.64-4.73,7.24-28.29,73.16-56.55,146.32-84.8,219.49-4.99,12.93-7.11,14.03-23.81,11.16,62.98-153.66,125.83-307.02,188.67-460.34,7.75,1.49,14.72,1.43,11.25,12.04-11.13,33.98-21.66,68.15-32.55,102.2-23.12,72.29-46.38,144.54-69.45,216.84-12.59,39.44-24.88,78.97-37.39,118.44Z"/>
  <path class="cls-4" d="m259.19,70.59c-.01.1-.01.19-.01.29l-5.19-.63c0,.11-.01.22-.01.33l-12.17-1.49c0-.18.01-.37,0-.55.27-28.24-16.63-52.28-40.36-55.89-.39-.06-.77-.11-1.16-.16-24.46-3.01-47.44,16.63-53.98,44.8,0,.02-.01.04-.01.06l-11.11-1.37-1.05-.13C141.64,20.99,170.69-3.43,201.78.39c.22.03.44.06.65.09,30.58,4.15,52.45,34.37,51.56,69.5l5.2.61Z"/>
  <path class="cls-3" d="m200.29,12.49c.39.05.77.1,1.16.16-22.98-.55-43.87,18.55-49.98,45.25h0s-5.16-.61-5.16-.61c6.54-28.17,29.52-47.81,53.98-44.8Z"/>
  <path class="cls-3" d="m259.19,70.59l-5.2-.61c.89-35.13-20.98-65.35-51.56-69.5,1.45.05,2.91.17,4.38.34,31.01,3.73,53.32,34.24,52.38,69.77Z"/>
  <g>
    <circle class="cls-2" cx="139.3" cy="62.02" r="3.13"/>
    <circle class="cls-2" cx="247.18" cy="79.81" r="3.13"/>
  </g>
</svg>